<svg xmlns="http://www.w3.org/2000/svg" version="1.1" xmlns:xlink="http://www.w3.org/1999/xlink" xmlns:svgjs="http://svgjs.dev/svgjs" width="1440" height="560" preserveAspectRatio="none" viewBox="0 0 1440 560"><g mask="url(&quot;#SvgjsMask1008&quot;)" fill="none"><path d="M1207.81 505.48 a0.01 0.01 0 1 0 0.02 0 a0.01 0.01 0 1 0 -0.02 0z" fill="rgba(199, 210, 254, 1)"></path><path d="M322.38 323.86L347.45 323.86L347.45 376.14L322.38 376.14z" fill="rgba(199, 210, 254, 1)"></path><path d="M1277.48 475.6a49.27 49.27 0 1 0 19.54-96.59z" stroke="rgba(199, 210, 254, 1)"></path><path d="M889.94 211.21L901.72 211.21L901.72 265.43L889.94 265.43z" fill="rgba(254, 249, 195, 1)"></path><path d="M1009.15 354 a44.88 44.88 0 1 0 89.76 0 a44.88 44.88 0 1 0 -89.76 0z" stroke="rgba(199, 210, 254, 1)"></path><path d="M591.13 383.06 a41.72 41.72 0 1 0 83.44 0 a41.72 41.72 0 1 0 -83.44 0z" fill="rgba(254, 249, 195, 1)"></path><path d="M1026.31 115.25 a19.84 19.84 0 1 0 39.68 0 a19.84 19.84 0 1 0 -39.68 0z" fill="rgba(199, 210, 254, 1)"></path><path d="M387.48 488.39L437.16 488.39L437.16 537.38L387.48 537.38z" fill="rgba(254, 249, 195, 1)"></path><path d="M431.03 508.43a28.77 28.77 0 1 0 24.15-52.23z" fill="rgba(199, 210, 254, 1)"></path><path d="M1030.3 33.32 a19.28 19.28 0 1 0 38.56 0 a19.28 19.28 0 1 0 -38.56 0z" stroke="rgba(254, 249, 195, 1)"></path><path d="M1242.76 353.42 a20.52 20.52 0 1 0 41.04 0 a20.52 20.52 0 1 0 -41.04 0z" fill="rgba(254, 249, 195, 1)"></path><path d="M916.21 281.97 a42.48 42.48 0 1 0 84.96 0 a42.48 42.48 0 1 0 -84.96 0z" fill="rgba(254, 249, 195, 1)"></path><path d="M538.82 86.23L556.53 86.23L556.53 91.47L538.82 91.47z" stroke="rgba(199, 210, 254, 1)"></path><path d="M609.81 92.42 a19.78 19.78 0 1 0 39.56 0 a19.78 19.78 0 1 0 -39.56 0z" stroke="rgba(254, 249, 195, 1)"></path><path d="M1000.64 543.98 a49.51 49.51 0 1 0 99.02 0 a49.51 49.51 0 1 0 -99.02 0z" fill="rgba(199, 210, 254, 1)"></path><path d="M1172.6 89.88 a10.68 10.68 0 1 0 21.36 0 a10.68 10.68 0 1 0 -21.36 0z" fill="rgba(254, 249, 195, 1)"></path><path d="M1210.37 432.26L1233.7 432.26L1233.7 441.35L1210.37 441.35z" fill="rgba(254, 249, 195, 1)"></path><path d="M138.22 219.17a41.54 41.54 0 1 0 33.57-76z" fill="rgba(254, 249, 195, 1)"></path><path d="M65.51 314.4L82.54 314.4L82.54 331.43L65.51 331.43z" stroke="rgba(254, 249, 195, 1)"></path><path d="M789.51 334.41 a53.75 53.75 0 1 0 107.5 0 a53.75 53.75 0 1 0 -107.5 0z" stroke="rgba(199, 210, 254, 1)"></path><path d="M205.35 215.82L209.71 215.82L209.71 220.18L205.35 220.18z" fill="rgba(199, 210, 254, 1)"></path><path d="M1356.3 188.23 a27.38 27.38 0 1 0 54.76 0 a27.38 27.38 0 1 0 -54.76 0z" fill="rgba(254, 249, 195, 1)"></path><path d="M529.06 228.04a36.14 36.14 0 1 0 20.3 69.37z" stroke="rgba(254, 249, 195, 1)"></path><path d="M482.79 86.41L507 86.41L507 104.6L482.79 104.6z" fill="rgba(254, 249, 195, 1)"></path><path d="M935.73 422.6a23.32 23.32 0 1 0-29.75-35.92z" stroke="rgba(254, 249, 195, 1)"></path><path d="M917.8 452.55 a34.6 34.6 0 1 0 69.2 0 a34.6 34.6 0 1 0 -69.2 0z" fill="rgba(199, 210, 254, 1)"></path><path d="M496.57 266.49a49.12 49.12 0 1 0-89.3 40.95z" stroke="rgba(254, 249, 195, 1)"></path><path d="M71.64 545.76L110.19 545.76L110.19 584.31L71.64 584.31z" fill="rgba(199, 210, 254, 1)"></path><path d="M590.39 507.42L603.89 507.42L603.89 520.92L590.39 520.92z" stroke="rgba(254, 249, 195, 1)"></path><path d="M389.78 266.32a40.64 40.64 0 1 0 9.59 80.71z" stroke="rgba(254, 249, 195, 1)"></path><path d="M1033.77 410.38L1053.53 410.38L1053.53 463.63L1033.77 463.63z" fill="rgba(199, 210, 254, 1)"></path><path d="M536.32 545.2L542.33 545.2L542.33 551.21L536.32 551.21z" stroke="rgba(254, 249, 195, 1)"></path><path d="M1053.15 150.48L1081.33 150.48L1081.33 186.16L1053.15 186.16z" fill="rgba(254, 249, 195, 1)"></path></g><defs><mask id="SvgjsMask1008"><rect width="1440" height="560" fill="#ffffff"></rect></mask></defs></svg>