<svg xmlns="http://www.w3.org/2000/svg" version="1.1" xmlns:xlink="http://www.w3.org/1999/xlink" xmlns:svgjs="http://svgjs.dev/svgjs" width="1440" height="560" preserveAspectRatio="none" viewBox="0 0 1440 560"><g mask="url(&quot;#SvgjsMask1050&quot;)" fill="none"><path d="M984.28 126.78L999.29 126.78L999.29 147.71L984.28 147.71z" fill="rgba(255, 255, 255, 1)"></path><path d="M757.36 310.87a33.01 33.01 0 1 0-20.74 62.68z" stroke="rgba(255, 255, 255, 1)"></path><path d="M246.18 55.86L269 55.86L269 83.98L246.18 83.98z" stroke="rgba(255, 255, 255, 1)"></path><path d="M61.14 28.42L78.3 28.42L78.3 58.57L61.14 58.57z" fill="rgba(255, 255, 255, 1)"></path><path d="M1115.29 37.52L1162.52 37.52L1162.52 84.75L1115.29 84.75z" fill="rgba(255, 255, 255, 1)"></path><path d="M1165.16 304.12L1188.93 304.12L1188.93 327.89L1165.16 327.89z" stroke="rgba(255, 255, 255, 1)"></path><path d="M1426.36 131.92L1451.59 131.92L1451.59 157.15L1426.36 157.15z" fill="rgba(255, 255, 255, 1)"></path><path d="M1037.04 315.82L1052.61 315.82L1052.61 326.22L1037.04 326.22z" fill="rgba(255, 255, 255, 1)"></path><path d="M1063.45 462.32L1109.96 462.32L1109.96 468.27L1063.45 468.27z" stroke="rgba(255, 255, 255, 1)"></path><path d="M239.04 132.36L274.63 132.36L274.63 167.95L239.04 167.95z" fill="rgba(255, 255, 255, 1)"></path><path d="M771.52 62.65L806.23 62.65L806.23 97.36L771.52 97.36z" fill="rgba(255, 255, 255, 1)"></path><path d="M1057.14 183.16 a33.81 33.81 0 1 0 67.62 0 a33.81 33.81 0 1 0 -67.62 0z" fill="rgba(255, 255, 255, 1)"></path><path d="M670.27 59.21L696.83 59.21L696.83 85.77L670.27 85.77z" fill="rgba(255, 255, 255, 1)"></path><path d="M257.79 495.11a37.83 37.83 0 1 0-71.64 24.34z" stroke="rgba(255, 255, 255, 1)"></path><path d="M1298.6 32.42 a24.64 24.64 0 1 0 49.28 0 a24.64 24.64 0 1 0 -49.28 0z" fill="rgba(255, 255, 255, 1)"></path><path d="M528.77 32.11L543 32.11L543 51.97L528.77 51.97z" fill="rgba(255, 255, 255, 1)"></path><path d="M218.54 36.98a28.17 28.17 0 1 0-35.8-43.5z" stroke="rgba(255, 255, 255, 1)"></path><path d="M942.17 256.61L968.64 256.61L968.64 283.08L942.17 283.08z" stroke="rgba(255, 255, 255, 1)"></path><path d="M871.12 464.24 a43.49 43.49 0 1 0 86.98 0 a43.49 43.49 0 1 0 -86.98 0z" stroke="rgba(255, 255, 255, 1)"></path><path d="M126.85 476.63L148.6 476.63L148.6 498.38L126.85 498.38z" fill="rgba(255, 255, 255, 1)"></path><path d="M439.21 264.65a5.66 5.66 0 1 0-10.71-3.67z" stroke="rgba(255, 255, 255, 1)"></path><path d="M649.65 436.74 a52.03 52.03 0 1 0 104.06 0 a52.03 52.03 0 1 0 -104.06 0z" stroke="rgba(255, 255, 255, 1)"></path><path d="M207.24 371.9a50.47 50.47 0 1 0 79.61-62.06z" stroke="rgba(255, 255, 255, 1)"></path><path d="M252.01 327.42L275.91 327.42L275.91 351.32L252.01 351.32z" stroke="rgba(255, 255, 255, 1)"></path><path d="M992.23 274.33a31.17 31.17 0 1 0-50.71-36.26z" stroke="rgba(255, 255, 255, 1)"></path><path d="M641 284.37L690.79 284.37L690.79 320.65L641 320.65z" stroke="rgba(255, 255, 255, 1)"></path><path d="M224.64 178.77L240.92 178.77L240.92 195.05L224.64 195.05z" fill="rgba(255, 255, 255, 1)"></path><path d="M1210.66 384.46L1219.98 384.46L1219.98 393.78L1210.66 393.78z" stroke="rgba(255, 255, 255, 1)"></path><path d="M525.9 1.34L580.78 1.34L580.78 7.12L525.9 7.12z" fill="rgba(255, 255, 255, 1)"></path><path d="M60.75 319.21a54.64 54.64 0 1 0 101.92-39.44z" stroke="rgba(255, 255, 255, 1)"></path><path d="M1266.74 376.8 a39.73 39.73 0 1 0 79.46 0 a39.73 39.73 0 1 0 -79.46 0z" fill="rgba(255, 255, 255, 1)"></path><path d="M898.06 464.74a45.52 45.52 0 1 0-83.44-36.42z" fill="rgba(255, 255, 255, 1)"></path><path d="M288.9 251.56L315.25 251.56L315.25 284.31L288.9 284.31z" stroke="rgba(255, 255, 255, 1)"></path></g><defs><mask id="SvgjsMask1050"><rect width="1440" height="560" fill="#ffffff"></rect></mask></defs></svg>